<?xml version="1.0" encoding="utf-8"?>
<!-- Generator: Adobe Illustrator 23.1.0, SVG Export Plug-In . SVG Version: 6.00 Build 0)  -->
<svg version="1.1" id="Layer_1" xmlns="http://www.w3.org/2000/svg" xmlns:xlink="http://www.w3.org/1999/xlink" x="0px" y="0px"
	 viewBox="0 0 220 80" style="enable-background:new 0 0 220 80;" xml:space="preserve">
<style type="text/css">
	.st0{fill-rule:evenodd;clip-rule:evenodd;fill:#3D434E;}
	.st1{fill-rule:evenodd;clip-rule:evenodd;fill:#273D4D;}
	.st2{fill:#424045;}
	.st3{font-family:'Georgia';}
	.st4{font-size:11px;}
</style>
<g>
	<path class="st0" d="M115.06,40.2c0,3.63,0.04,7.25,0.09,10.88c0.01,1,0.04,1-0.88,1.4c-3.44,1.47-6.98,2.61-10.67,3.23
		c-4.57,0.78-9.12,0.85-13.57-0.66c-6.75-2.29-11.37-6.8-14.05-13.32c-1.05-2.54-1.59-5.2-1.77-7.95
		c-0.26-3.95,0.08-7.83,1.44-11.56c3.02-8.25,8.76-13.57,17.45-15.49c4.05-0.9,8.14-0.8,12.14,0.46c1.77,0.56,9.14,2.67-6.63,1.7
		c-2.24-0.06-4.4,0.27-6.44,1.2c-2.84,1.3-4.89,3.45-6.45,6.09c-1.43,2.42-2.24,5.06-2.76,7.79c-0.49,2.55-0.67,5.14-0.62,7.73
		c0.07,4.17,0.75,8.22,2.53,12.04c1.6,3.44,3.93,6.23,7.36,8.01c1.81,0.94,3.75,1.42,5.78,1.54c2.79,0.17,5.47-0.29,8.01-1.51
		c1.91-0.92,2.16-1.21,2.22-3.3c0.07-2.55,0.09-5.11,0.07-7.65c0-0.63-0.16-1.25-0.31-1.87c-0.21-0.9-0.79-1.49-1.63-1.87
		c-1.15-0.52-2.39-0.71-3.62-0.87c-0.73-0.09-1.46-0.16-2.19-0.25c-0.1-0.01-0.25-0.17-0.26-0.27c-0.02-0.61-0.02-1.22,0-1.82
		c0-0.09,0.16-0.19,0.27-0.26c0.05-0.03,0.14-0.01,0.2-0.01c6.7,0,16.03-0.01,14.39-0.01"/>
	<path class="st0" d="M116.28,35.22"/>
</g>
<g>
	<path class="st1" d="M100.56,8.68c0-0.81,0-1.58,0-2.43c0.15,0,0.29,0,0.44,0c7.24,0,14.47,0,21.71,0c2.71,0,5.37,0.27,7.94,1.19
		c2.8,1.01,5.12,2.61,6.54,5.3c0.7,1.33,1.02,2.76,1.09,4.24c0.11,2.24-0.15,4.41-1.15,6.45c-1.18,2.42-3.12,4.09-5.49,5.27
		c-1.49,0.74-3.09,1.28-4.64,1.91c-0.14,0.06-0.29,0.09-0.46,0.15c0.05,0.09,0.07,0.17,0.12,0.23c4.06,5.41,8.12,10.81,12.18,16.22
		c1.11,1.48,2.48,2.66,4.1,3.58c1.26,0.72,2.65,0.95,4.06,1.12c0.28,0.03,0.55,0.06,0.85,0.09c0,0.8,0,1.58,0,2.41
		c-0.17,0-0.32,0-0.47,0c-4.07,0-8.13,0-12.2,0.01c-0.32,0-0.5-0.09-0.67-0.36c-4.6-7.2-28.49-44.21-29.57-44.51
		c-1-0.27-2.02-0.47-3.03-0.67C101.47,8.78,101.04,8.75,100.56,8.68z M120.86,29.51c3.71-0.52,6.44-2.53,8-5.94
		c0.99-2.17,1.15-4.48,0.86-6.82c-0.23-1.8-0.88-3.44-2.1-4.82c-1.85-2.08-4.27-2.82-6.96-2.89c-1.96-0.05-3.93-0.02-5.89-0.02
		c-0.13,0-0.27,0-0.41,0"/>
</g>
<text transform="matrix(1 0 0 1 1.6455 71.9609)" class="st2 st3 st4">ASSESSORIA CONTÁBIL E EMPRESARIAL</text>
</svg>
